Coordinates
version=1
nRows=17
nColumns=24
inDegrees=yes

Units are S.I. units (second, meters, Newtons, ...)
Angles are in degrees.

endheader
time	pelvis_tilt	pelvis_list	pelvis_rotation	pelvis_tx	pelvis_ty	pelvis_tz	hip_flexion_r	hip_adduction_r	hip_rotation_r	knee_angle_r	ankle_angle_r	subtalar_angle_r	mtp_angle_r	hip_flexion_l	hip_adduction_l	hip_rotation_l	knee_angle_l	ankle_angle_l	subtalar_angle_l	mtp_angle_l	lumbar_extension	lumbar_bending	lumbar_rotation
      1.20400000	     -4.05033425	     -1.37803161	     -8.62530182	     -0.02919170	      0.87526290	      0.30055427	    -17.83507031	      3.80439091	      6.67213049	     -7.89017466	     15.64891902	      8.34826626	     11.23972625	     32.82479205	     -4.89007565	    -10.26121630	     -1.33419129	      2.09961216	     -6.26088997	     -2.04970141	     -5.61474504	      1.25888244	     14.66770461
      1.20816667	     -4.11224731	     -1.30020120	     -8.72904795	     -0.02327911	      0.87421714	      0.30044231	    -17.89736899	      3.64166391	      6.64862768	     -8.40665559	     15.61525346	      8.50712670	     11.60307579	     32.99018026	     -4.84536530	    -10.10980206	     -2.01007418	      2.01754496	     -6.47959050	     -1.99368584	     -5.49714583	      1.07736549	     14.79333563
      1.21233333	     -4.06998781	     -1.16860897	     -8.80471050	     -0.01722326	      0.87336889	      0.30028973	    -18.09903846	      3.40764369	      6.58627179	     -8.85124320	     15.43071354	      8.58723249	     14.29016351	     32.98186221	     -4.70374628	     -9.90630623	     -2.59466039	      1.85619028	     -6.86581805	     -1.49233784	     -5.50900487	      0.78886125	     14.82498599
      1.21650000	     -4.14033650	     -1.07907206	     -8.88897357	     -0.01118646	      0.87240111	      0.30017219	    -18.15861654	      3.24628663	      6.63300362	     -9.35401994	     15.22162050	      8.50612790	     14.37873867	     33.13997436	     -4.63926977	     -9.81457299	     -3.31343751	      1.72143123	     -6.95799145	     -1.46780644	     -5.38170707	      0.59310097	     14.81964255
      1.22066667	     -4.18679030	     -0.95201794	     -8.95959764	     -0.00505221	      0.87151165	      0.30000893	    -18.23081192	      3.03930883	      6.61887994	     -9.87652879	     14.99879131	      8.51299487	     14.51690770	     33.22535848	     -4.51134395	     -9.66389882	     -3.95990387	      1.49505910	     -7.21854521	     -1.42991722	     -5.26178197	      0.32733147	     14.82627671
      1.22483333	     -4.23219429	     -0.81206174	     -9.01853636	      0.00113996	      0.87066963	      0.29980916	    -18.29128606	      2.81976094	      6.58134408	    -10.42096549	     14.73813543	      8.52299076	     14.69901472	     33.29062824	     -4.35662329	     -9.50204241	     -4.58459705	      1.17921094	     -7.54786719	     -1.37978824	     -5.15270145	      0.05477850	     14.82025523
      1.22900000	     -4.27774709	     -0.68019960	     -9.06203489	      0.00734921	      0.86986830	      0.29955337	    -18.32741445	      2.61141827	      6.51216455	    -11.01420478	     14.49747209	      8.56798260	     15.10052818	     33.34062626	     -4.18818839	     -9.27812599	     -5.18697062	      0.74201270	     -8.07614454	     -1.26626038	     -5.03978483	     -0.17725181	     14.80244493
      1.23316667	     -4.28517887	     -0.49243633	     -9.10587239	      0.01368157	      0.86918703	      0.29931039	    -18.39908937	      2.33601726	      6.42150394	    -11.59346440	     14.08351166	      8.51866903	     18.80688036	     33.32415980	     -3.96085528	     -9.16253202	     -5.75725651	      0.31380485	     -8.46266553	     -0.15161162	     -4.95925736	     -0.53177844	     14.74665861
      1.23733333	     -4.38977135	     -0.34765925	     -9.12525480	      0.01998898	      0.86840464	      0.29900853	    -18.34100505	      2.13268253	      6.34462941	    -12.23794872	     13.68828028	      8.50910197	     18.90080129	     33.43452908	     -3.77152195	     -8.97018314	     -6.37319305	     -0.18684820	     -8.89663643	     -0.11794501	     -4.75940697	     -0.77881269	     14.71211447
      1.24150000	     -4.46683396	     -0.16116892	     -9.13987971	      0.02637565	      0.86771743	      0.29868870	    -18.29468567	      1.88019706	      6.24219181	    -12.90768259	     13.29013047	      8.50563822	     19.06730224	     33.48764494	     -3.52661987	     -8.80149245	     -6.93557807	     -0.77795657	     -9.42744935	     -0.06935292	     -4.58162718	     -1.09707415	     14.64268500
      1.24566667	     -4.54670710	      0.03698410	     -9.14118055	      0.03279385	      0.86708238	      0.29832690	    -18.21879191	      1.61782325	      6.10564513	    -13.62098942	     12.83630756	      8.50801683	     19.34873121	     33.53397268	     -3.25540135	     -8.60367480	     -7.47659616	     -1.40726713	    -10.02915619	      0.00940261	     -4.40111600	     -1.42308632	     14.55739272
      1.24983333	     -4.58859242	      0.26269697	     -9.10135431	      0.03931136	      0.86655430	      0.29788712	    -18.19020830	      1.32276504	      5.87947342	    -14.30449711	     12.27052730	      8.58707970	     20.35330188	     33.52380223	     -2.91872582	     -8.35944513	     -7.98244411	     -2.06387176	    -10.72057946	      0.29197657	     -4.25404552	     -1.80802850	     14.47275580
      1.25400000	     -4.71852098	      0.47613314	     -9.09919974	      0.04576105	      0.86595934	      0.29751466	    -17.99651790	      1.05650744	      5.74735354	    -15.12033420	     11.69671567	      8.48002481	     23.88854145	     33.65010714	     -2.64915889	     -8.29032775	     -8.57965582	     -2.72461161	    -11.16901863	      1.27460480	     -4.01088452	     -2.14414162	     14.36206251
      1.25816667	     -4.84203665	      0.69225968	     -9.06838210	      0.05224185	      0.86542808	      0.29708702	    -17.80135195	      0.79465276	      5.59434802	    -15.95227486	     11.11983849	      8.43140116	     23.96177984	     33.76649308	     -2.35162159	     -8.15438355	     -9.16947813	     -3.40307158	    -11.74182504	      1.28903923	     -3.77282350	     -2.48300058	     14.24305692
      1.26233333	     -4.95292779	      0.93364770	     -9.01697568	      0.05876257	      0.86496882	      0.29659851	    -17.59419738	      0.50195460	      5.37536681	    -16.81954558	     10.49366636	      8.44086975	     24.13457775	     33.86325774	     -2.00916749	     -7.98396046	     -9.74522282	     -4.07157429	    -12.37341635	      1.32124963	     -3.54985328	     -2.86164811	     14.11065865
      1.26650000	     -5.07146387	      1.18114254	     -8.94903338	      0.06529313	      0.86454900	      0.29608547	    -17.35132233	      0.20815356	      5.13483905	    -17.73094682	      9.83007814	      8.44190098	     24.39626111	     33.98262480	     -1.65644950	     -7.82762278	    -10.35196666	     -4.71288876	    -12.97958134	      1.36659511	     -3.31563799	     -3.24267756	     13.96757067
      1.27066667	     -5.17765499	      1.43977616	     -8.85617715	      0.07185908	      0.86419670	      0.29551511	    -17.10871264	     -0.09904713	      4.85092212	    -18.65351081	      9.09739402	      8.48155272	     24.89517258	     34.10164245	     -1.27446641	     -7.64511543	    -10.99546146	     -5.26639721	    -13.64125848	      1.45102309	     -3.09421269	     -3.65311984	     13.81779313
